<?xml version="1.0" encoding="UTF-8" ?>
<!DOCTYPE svg PUBLIC "-//W3C//DTD SVG 1.1//EN" "http://www.w3.org/Graphics/SVG/1.1/DTD/svg11.dtd">
<svg width="1215pt" height="486pt" viewBox="0 0 1215 486" version="1.1" xmlns="http://www.w3.org/2000/svg">
<g id="#ffffffff">
<path fill="#ffffff" opacity="1.00" d=" M 335.17 228.36 C 339.08 220.79 342.84 213.11 346.99 205.65 C 347.28 208.07 347.46 210.52 348.19 212.86 C 348.11 218.09 349.72 223.13 349.66 228.36 C 344.83 228.32 340.00 228.34 335.17 228.36 Z" />
</g>
<g id="#111111ff">
<path fill="#111111" opacity="1.00" d=" M 642.48 95.42 C 665.66 72.29 688.91 49.24 712.02 26.05 C 737.85 51.41 763.71 76.75 789.34 102.31 C 817.42 130.03 845.73 157.51 873.60 185.46 C 888.01 199.73 902.56 213.85 917.05 228.05 C 840.86 305.16 764.22 381.84 687.95 458.87 C 687.04 459.71 686.06 460.46 685.00 461.10 C 671.16 447.26 656.76 434.00 642.76 420.32 C 625.32 403.59 607.95 386.76 590.47 370.09 L 590.77 369.08 C 634.34 321.96 678.28 275.21 721.82 228.07 C 686.53 192.53 651.57 156.67 616.33 121.09 C 625.39 112.91 633.74 103.94 642.48 95.42 Z" />
<path fill="#111111" opacity="1.00" d=" M 947.02 26.24 C 947.76 26.25 948.43 26.47 949.01 26.92 C 960.54 38.42 972.58 49.39 984.05 60.96 C 1003.97 80.34 1023.93 99.68 1043.87 119.03 C 1011.96 151.35 979.86 183.47 947.96 215.79 C 915.54 183.90 884.10 151.05 851.85 118.99 C 865.87 105.28 880.22 91.92 894.06 78.02 C 911.71 60.75 929.72 43.84 947.02 26.24 Z" />
<path fill="#111111" opacity="1.00" d=" M 340.58 166.43 C 348.83 166.21 357.08 166.25 365.33 166.40 C 366.53 175.95 367.70 185.51 369.00 195.05 C 369.96 197.89 368.92 201.14 370.32 203.84 C 371.87 218.57 374.32 233.21 375.84 247.95 C 376.83 250.52 376.50 253.33 376.86 256.01 C 378.43 264.73 379.37 273.63 380.49 282.45 C 372.29 282.37 364.08 282.71 355.89 282.27 C 355.71 278.78 355.47 275.30 355.30 271.82 C 354.78 270.62 354.50 269.37 354.47 268.07 C 354.19 262.21 352.88 256.45 352.55 250.59 C 342.98 250.62 333.39 250.45 323.82 250.66 L 323.16 251.13 C 319.52 258.43 315.66 265.63 311.91 272.87 C 310.24 276.02 308.58 279.18 307.09 282.43 C 299.00 282.46 290.90 282.55 282.81 282.38 C 283.12 281.76 283.74 280.51 284.05 279.89 C 286.63 274.57 289.29 269.31 291.92 264.02 C 302.61 242.70 313.31 221.39 323.93 200.03 C 329.46 188.82 335.35 177.77 340.58 166.43 M 335.17 228.36 C 340.00 228.34 344.83 228.32 349.66 228.36 C 349.72 223.13 348.11 218.09 348.19 212.86 C 347.46 210.52 347.28 208.07 346.99 205.65 C 342.84 213.11 339.08 220.79 335.17 228.36 Z" />
<path fill="#111111" opacity="1.00" d=" M 421.64 166.29 C 430.85 166.31 440.06 166.08 449.26 166.43 C 450.25 177.68 451.88 188.87 452.77 200.13 C 453.72 203.37 453.43 206.78 453.77 210.11 C 454.95 212.97 454.49 216.14 454.80 219.15 C 456.07 223.99 455.71 229.07 456.71 233.97 L 457.99 233.37 C 460.55 228.58 463.21 223.85 465.71 219.04 C 468.04 215.16 469.98 211.07 472.29 207.19 C 476.19 199.82 480.29 192.56 484.24 185.22 C 487.55 179.40 490.44 173.33 494.05 167.68 C 503.57 167.79 513.10 167.70 522.63 167.73 C 521.88 176.42 521.16 185.15 519.80 193.75 C 519.54 197.10 519.81 200.56 518.71 203.78 C 518.34 207.10 518.82 210.57 517.67 213.76 C 517.42 216.51 517.34 219.26 517.13 222.01 C 515.42 234.13 514.59 246.40 513.05 258.55 C 512.23 262.25 512.97 266.16 511.67 269.77 C 511.55 274.05 511.14 278.29 510.38 282.50 C 501.95 282.65 493.48 282.16 485.09 282.74 C 484.92 282.97 484.57 283.42 484.39 283.64 C 484.19 282.37 484.50 281.13 485.26 280.09 C 485.49 277.76 485.31 275.34 486.16 273.11 C 487.39 263.78 488.72 254.45 490.20 245.15 C 490.48 243.15 490.29 241.02 491.23 239.17 C 491.29 234.68 492.79 230.38 492.83 225.88 C 493.60 223.97 493.78 221.93 493.33 219.93 C 492.97 220.66 492.63 221.40 492.29 222.14 C 480.70 242.57 469.30 263.15 457.70 283.59 C 457.49 283.35 457.08 282.86 456.87 282.62 C 451.19 282.29 445.50 282.69 439.83 282.36 C 439.42 279.61 439.79 276.71 438.84 274.07 C 437.06 263.09 435.82 251.99 433.77 241.10 C 433.55 239.04 433.42 236.97 433.20 234.92 C 432.08 230.87 431.95 226.60 431.05 222.49 C 430.77 222.49 430.22 222.48 429.94 222.47 C 428.38 231.47 425.32 240.15 422.99 248.97 C 422.68 250.30 422.35 251.62 421.87 252.90 C 421.56 254.23 421.26 255.56 420.80 256.84 C 419.21 262.85 417.67 268.88 415.94 274.85 C 415.21 277.32 414.39 279.78 414.15 282.37 C 406.41 282.64 398.65 282.43 390.91 282.48 C 392.16 278.74 392.91 274.86 394.11 271.11 C 394.41 269.74 394.56 268.31 395.22 267.05 C 395.44 265.99 395.65 264.94 395.86 263.89 C 401.78 242.34 407.17 220.65 413.08 199.10 C 413.36 197.74 413.51 196.32 414.18 195.08 C 416.02 187.41 418.01 179.75 420.17 172.17 C 420.62 170.20 421.15 168.25 421.64 166.29 Z" />
<path fill="#111111" opacity="1.00" d=" M 142.30 172.15 C 142.49 170.35 142.62 168.56 142.72 166.76 C 171.35 166.82 199.98 166.84 228.61 166.75 C 227.68 170.18 226.74 173.62 226.11 177.12 C 225.21 179.91 224.77 182.82 224.04 185.65 C 214.27 185.65 204.51 185.64 194.74 185.67 C 191.30 203.84 187.31 221.92 183.74 240.08 C 182.97 242.98 182.84 246.04 181.78 248.86 C 181.57 250.26 181.40 251.67 181.21 253.08 C 179.06 261.25 178.06 269.73 175.80 277.87 C 175.60 279.89 175.41 281.93 174.57 283.81 C 167.06 283.71 159.54 283.75 152.03 283.75 C 152.92 280.55 153.01 277.16 154.16 274.04 C 154.45 272.04 154.26 269.91 155.20 268.08 C 156.68 259.39 158.21 250.69 160.10 242.09 C 162.37 229.74 164.48 217.31 167.11 205.05 C 168.13 198.57 169.55 192.15 170.58 185.67 C 160.40 185.59 150.22 185.73 140.04 185.60 C 140.65 181.10 141.13 176.50 142.30 172.15 Z" />
<path fill="#111111" opacity="1.00" d=" M 234.92 166.79 C 255.79 166.79 276.66 166.84 297.52 166.76 C 297.40 169.53 297.35 172.31 297.09 175.07 C 296.28 178.54 296.43 182.13 296.19 185.66 C 282.00 185.60 267.82 185.76 253.64 185.57 C 251.70 188.69 252.85 192.64 252.20 196.11 C 251.06 201.89 250.72 207.86 250.16 213.75 C 262.35 213.03 274.55 212.84 286.74 212.26 C 286.74 219.30 286.86 226.34 286.66 233.38 C 274.83 232.55 262.94 232.97 251.14 231.75 C 249.58 231.50 248.07 231.85 246.62 232.36 C 245.30 242.52 242.57 252.47 241.04 262.60 C 254.78 262.78 268.53 262.62 282.27 262.68 C 282.16 269.30 281.06 275.85 280.83 282.46 C 258.37 282.48 235.92 282.44 213.47 282.49 C 215.72 272.77 216.90 262.81 219.18 253.10 C 221.36 240.44 223.58 227.75 226.23 215.20 C 227.72 206.46 229.05 197.65 231.10 189.03 C 231.31 187.04 231.38 185.00 232.21 183.15 C 232.80 177.64 234.31 172.29 234.92 166.79 Z" />
<path fill="#111111" opacity="1.00" d=" M 533.23 224.63 C 550.39 224.62 567.56 224.72 584.72 224.58 C 584.66 231.18 584.97 237.79 584.53 244.38 C 567.52 244.27 550.50 244.30 533.49 244.36 C 532.93 237.80 533.40 231.21 533.23 224.63 Z" />
<path fill="#111111" opacity="1.00" d=" M 854.01 339.00 C 885.87 306.91 918.06 275.13 950.09 243.20 C 981.35 274.21 1012.56 305.26 1044.02 336.06 C 1044.70 336.88 1046.04 337.59 1045.67 338.88 C 1013.71 370.48 982.11 402.44 950.11 433.98 C 918.82 402.43 887.05 371.36 855.88 339.70 C 855.41 339.53 854.48 339.17 854.01 339.00 Z" />
</g>
</svg>
